<?xml version="1.0" standalone="no"?>
<!DOCTYPE svg PUBLIC "-//W3C//DTD SVG 20010904//EN"
 "http://www.w3.org/TR/2001/REC-SVG-20010904/DTD/svg10.dtd">
<svg version="1.0" xmlns="http://www.w3.org/2000/svg"
 width="512.000000pt" height="512.000000pt" viewBox="0 0 512.000000 512.000000"
 preserveAspectRatio="xMidYMid meet">

<g transform="translate(0.000000,512.000000) scale(0.100000,-0.100000)"
fill="#000000" stroke="none">
<path d="M1825 5105 c-134 -73 -347 -201 -367 -222 -22 -24 -23 -29 -26 -241
l-2 -217 955 -550 955 -550 0 -1347 c0 -742 -2 -1348 -4 -1348 -2 0 -431 247
-952 548 l-949 548 -3 -260 c-2 -236 0 -267 17 -326 24 -78 71 -147 132 -194
24 -18 397 -238 829 -487 722 -417 789 -453 830 -453 39 0 70 15 225 106 99
58 189 118 200 133 20 26 20 41 20 1868 l0 1842 -24 58 c-15 38 -43 79 -80
117 -50 53 -140 108 -856 521 -517 298 -812 463 -835 466 -21 2 -47 -2 -65
-12z"/>
<path d="M2167 3243 c-4 -3 -7 -14 -7 -24 0 -24 319 -1370 329 -1389 11 -20
50 -25 56 -8 5 12 -320 1401 -332 1421 -5 9 -37 9 -46 0z"/>
<path d="M1893 3073 c-153 -128 -173 -147 -172 -162 0 -9 51 -117 112 -241
101 -203 114 -225 137 -225 15 0 26 6 28 17 2 9 -44 111 -102 226 l-106 211
105 91 c58 50 105 97 105 104 0 13 -20 36 -32 36 -4 0 -38 -26 -75 -57z"/>
<path d="M2710 2655 c0 -14 45 -115 100 -225 55 -110 100 -203 100 -208 0 -4
-45 -46 -100 -92 -70 -59 -100 -91 -100 -106 0 -33 25 -36 64 -6 91 69 205
169 211 184 4 10 -38 104 -110 247 -104 209 -117 231 -140 231 -20 0 -25 -5
-25 -25z"/>
</g>
</svg>
